<?xml version="1.0" encoding="UTF-8" standalone="no"?><svg xmlns="http://www.w3.org/2000/svg" xmlns:xlink="http://www.w3.org/1999/xlink" contentStyleType="text/css" height="604px" preserveAspectRatio="none" style="width:700px;height:604px;background:#FFFFFF;" version="1.1" viewBox="0 0 700 604" width="700px" zoomAndPan="magnify"><defs/><g><rect fill="none" height="26.4883" id="_title" style="stroke:none;stroke-width:1.0;" width="118" x="290.75" y="10"/><text fill="#000000" font-family="sans-serif" font-size="14" font-weight="bold" lengthAdjust="spacing" textLength="108" x="295.75" y="28.5352">How it's works</text><line style="stroke:#181818;stroke-width:0.5;stroke-dasharray:5.0,5.0;" x1="39" x2="39" y1="90.4648" y2="552.3652"/><line style="stroke:#181818;stroke-width:0.5;stroke-dasharray:5.0,5.0;" x1="252" x2="252" y1="90.4648" y2="552.3652"/><line style="stroke:#181818;stroke-width:0.5;stroke-dasharray:5.0,5.0;" x1="452.5" x2="452.5" y1="90.4648" y2="552.3652"/><line style="stroke:#181818;stroke-width:0.5;stroke-dasharray:5.0,5.0;" x1="557" x2="557" y1="90.4648" y2="552.3652"/><rect fill="#E2E2F0" height="30.4883" rx="2.5" ry="2.5" style="stroke:#181818;stroke-width:0.5;" width="69" x="5" y="58.9766"/><text fill="#000000" font-family="sans-serif" font-size="14" lengthAdjust="spacing" textLength="55" x="12" y="79.5117">Browser</text><rect fill="#E2E2F0" height="30.4883" rx="2.5" ry="2.5" style="stroke:#181818;stroke-width:0.5;" width="69" x="5" y="551.3652"/><text fill="#000000" font-family="sans-serif" font-size="14" lengthAdjust="spacing" textLength="55" x="12" y="571.9004">Browser</text><rect fill="#E2E2F0" height="46.9766" rx="2.5" ry="2.5" style="stroke:#181818;stroke-width:0.5;" width="79" x="213" y="42.4883"/><text fill="#000000" font-family="sans-serif" font-size="14" lengthAdjust="spacing" textLength="65" x="220" y="63.0234">Javascript</text><text fill="#000000" font-family="sans-serif" font-size="14" lengthAdjust="spacing" textLength="44" x="230.5" y="79.5117">library</text><rect fill="#E2E2F0" height="46.9766" rx="2.5" ry="2.5" style="stroke:#181818;stroke-width:0.5;" width="79" x="213" y="551.3652"/><text fill="#000000" font-family="sans-serif" font-size="14" lengthAdjust="spacing" textLength="65" x="220" y="571.9004">Javascript</text><text fill="#000000" font-family="sans-serif" font-size="14" lengthAdjust="spacing" textLength="44" x="230.5" y="588.3887">library</text><rect fill="#E2E2F0" height="30.4883" rx="2.5" ry="2.5" style="stroke:#181818;stroke-width:0.5;" width="88" x="408.5" y="58.9766"/><text fill="#000000" font-family="sans-serif" font-size="14" lengthAdjust="spacing" textLength="74" x="415.5" y="79.5117">WebSocket</text><rect fill="#E2E2F0" height="30.4883" rx="2.5" ry="2.5" style="stroke:#181818;stroke-width:0.5;" width="88" x="408.5" y="551.3652"/><text fill="#000000" font-family="sans-serif" font-size="14" lengthAdjust="spacing" textLength="74" x="415.5" y="571.9004">WebSocket</text><rect fill="#E2E2F0" height="46.9766" rx="2.5" ry="2.5" style="stroke:#181818;stroke-width:0.5;" width="71" x="522" y="42.4883"/><text fill="#000000" font-family="sans-serif" font-size="14" lengthAdjust="spacing" textLength="47" x="534" y="63.0234">Python</text><text fill="#000000" font-family="sans-serif" font-size="14" lengthAdjust="spacing" textLength="57" x="529" y="79.5117">Backend</text><rect fill="#E2E2F0" height="46.9766" rx="2.5" ry="2.5" style="stroke:#181818;stroke-width:0.5;" width="71" x="522" y="551.3652"/><text fill="#000000" font-family="sans-serif" font-size="14" lengthAdjust="spacing" textLength="47" x="534" y="571.9004">Python</text><text fill="#000000" font-family="sans-serif" font-size="14" lengthAdjust="spacing" textLength="57" x="529" y="588.3887">Backend</text><polygon fill="#181818" points="240.5,148.3965,250.5,152.3965,240.5,156.3965,244.5,152.3965" style="stroke:#181818;stroke-width:1.0;"/><line style="stroke:#181818;stroke-width:1.0;" x1="39.5" x2="246.5" y1="152.3965" y2="152.3965"/><text fill="#000000" font-family="sans-serif" font-size="13" lengthAdjust="spacing" textLength="94" x="46.5" y="117.0332">Browser makes</text><text fill="#000000" font-family="sans-serif" font-size="13" lengthAdjust="spacing" textLength="74" x="46.5" y="132.3438">funcion call</text><text fill="#000000" font-family="sans-serif" font-size="13" lengthAdjust="spacing" textLength="114" x="46.5" y="147.6543">(creating promise)</text><polygon fill="#181818" points="440.5,177.707,450.5,181.707,440.5,185.707,444.5,181.707" style="stroke:#181818;stroke-width:1.0;"/><line style="stroke:#181818;stroke-width:1.0;" x1="252.5" x2="446.5" y1="181.707" y2="181.707"/><text fill="#000000" font-family="sans-serif" font-size="13" lengthAdjust="spacing" textLength="81" x="259.5" y="176.9648">Sending json</text><path d="M457,194.707 L457,280.707 L610,280.707 L610,204.707 L600,194.707 L457,194.707 " fill="#FEFFDD" style="stroke:#181818;stroke-width:0.5;"/><path d="M600,194.707 L600,204.707 L610,204.707 L600,194.707 " fill="#FEFFDD" style="stroke:#181818;stroke-width:0.5;"/><text fill="#000000" font-family="sans-serif" font-size="13" lengthAdjust="spacing" textLength="4" x="463" y="212.2754">{</text><text fill="#000000" font-family="sans-serif" font-size="13" lengthAdjust="spacing" textLength="42" x="479" y="227.5859">"id": 1,</text><text fill="#000000" font-family="sans-serif" font-size="13" lengthAdjust="spacing" textLength="116" x="479" y="242.8965">"method": "uuid4",</text><text fill="#000000" font-family="sans-serif" font-size="13" lengthAdjust="spacing" textLength="72" x="479" y="258.207">"params": {}</text><text fill="#000000" font-family="sans-serif" font-size="13" lengthAdjust="spacing" textLength="4" x="463" y="273.5176">}</text><polygon fill="#181818" points="545.5,303.5703,555.5,307.5703,545.5,311.5703,549.5,307.5703" style="stroke:#181818;stroke-width:1.0;"/><line style="stroke:#181818;stroke-width:1.0;" x1="452.5" x2="551.5" y1="307.5703" y2="307.5703"/><text fill="#000000" font-family="sans-serif" font-size="13" lengthAdjust="spacing" textLength="77" x="459.5" y="302.8281">Parsing json</text><line style="stroke:#181818;stroke-width:1.0;stroke-dasharray:2.0,2.0;" x1="557.5" x2="599.5" y1="336.8809" y2="336.8809"/><line style="stroke:#181818;stroke-width:1.0;stroke-dasharray:2.0,2.0;" x1="599.5" x2="599.5" y1="336.8809" y2="349.8809"/><line style="stroke:#181818;stroke-width:1.0;stroke-dasharray:2.0,2.0;" x1="558.5" x2="599.5" y1="349.8809" y2="349.8809"/><line style="stroke:#181818;stroke-width:1.0;" x1="558.5" x2="568.5" y1="349.8809" y2="345.8809"/><line style="stroke:#181818;stroke-width:1.0;" x1="558.5" x2="568.5" y1="349.8809" y2="353.8809"/><text fill="#000000" font-family="sans-serif" font-size="13" lengthAdjust="spacing" textLength="129" x="564.5" y="332.1387">Call python function</text><polygon fill="#181818" points="463.5,375.1914,453.5,379.1914,463.5,383.1914,459.5,379.1914" style="stroke:#181818;stroke-width:1.0;"/><line style="stroke:#181818;stroke-width:1.0;" x1="457.5" x2="556.5" y1="379.1914" y2="379.1914"/><text fill="#000000" font-family="sans-serif" font-size="13" lengthAdjust="spacing" textLength="81" x="469.5" y="374.4492">Sending json</text><path d="M166,392.1914 L166,463.1914 L552,463.1914 L552,402.1914 L542,392.1914 L166,392.1914 " fill="#FEFFDD" style="stroke:#181818;stroke-width:0.5;"/><path d="M542,392.1914 L542,402.1914 L552,402.1914 L542,392.1914 " fill="#FEFFDD" style="stroke:#181818;stroke-width:0.5;"/><text fill="#000000" font-family="sans-serif" font-size="13" lengthAdjust="spacing" textLength="4" x="172" y="409.7598">{</text><text fill="#000000" font-family="sans-serif" font-size="13" lengthAdjust="spacing" textLength="42" x="188" y="425.0703">"id": 1,</text><text fill="#000000" font-family="sans-serif" font-size="13" lengthAdjust="spacing" textLength="349" x="188" y="440.3809">"result": "8927d899-497a-4851-98d4-0a3a0e07fdd5",</text><text fill="#000000" font-family="sans-serif" font-size="13" lengthAdjust="spacing" textLength="4" x="172" y="455.6914">}</text><polygon fill="#181818" points="263.5,485.7441,253.5,489.7441,263.5,493.7441,259.5,489.7441" style="stroke:#181818;stroke-width:1.0;"/><line style="stroke:#181818;stroke-width:1.0;" x1="257.5" x2="451.5" y1="489.7441" y2="489.7441"/><text fill="#000000" font-family="sans-serif" font-size="13" lengthAdjust="spacing" textLength="176" x="269.5" y="485.002">Sending through Websocket</text><polygon fill="#181818" points="50.5,530.3652,40.5,534.3652,50.5,538.3652,46.5,534.3652" style="stroke:#181818;stroke-width:1.0;"/><line style="stroke:#181818;stroke-width:1.0;" x1="44.5" x2="251.5" y1="534.3652" y2="534.3652"/><text fill="#000000" font-family="sans-serif" font-size="13" lengthAdjust="spacing" textLength="189" x="56.5" y="514.3125">Call JS function on client-side</text><text fill="#000000" font-family="sans-serif" font-size="13" lengthAdjust="spacing" textLength="121" x="56.5" y="529.623">(resolving promise)</text></g></svg>