<?xml version="1.0" encoding="UTF-8" standalone="no"?><svg xmlns="http://www.w3.org/2000/svg" xmlns:xlink="http://www.w3.org/1999/xlink" contentStyleType="text/css" height="662px" preserveAspectRatio="none" style="width:664px;height:662px;background:#FFFFFF;" version="1.1" viewBox="0 0 664 662" width="664px" zoomAndPan="magnify"><defs/><g><rect fill="none" height="29.0679" id="_title" style="stroke:none;stroke-width:1.0;" width="114" x="274.75" y="10"/><text fill="#000000" font-family="sans-serif" font-size="14" font-weight="bold" lengthAdjust="spacing" textLength="104" x="279.75" y="29.9659">How it's works</text><line style="stroke:#181818;stroke-width:0.5;stroke-dasharray:5.0,5.0;" x1="39" x2="39" y1="98.2038" y2="605.6181"/><line style="stroke:#181818;stroke-width:0.5;stroke-dasharray:5.0,5.0;" x1="233" x2="233" y1="98.2038" y2="605.6181"/><line style="stroke:#181818;stroke-width:0.5;stroke-dasharray:5.0,5.0;" x1="428" x2="428" y1="98.2038" y2="605.6181"/><line style="stroke:#181818;stroke-width:0.5;stroke-dasharray:5.0,5.0;" x1="529" x2="529" y1="98.2038" y2="605.6181"/><rect fill="#E2E2F0" height="33.0679" rx="2.5" ry="2.5" style="stroke:#181818;stroke-width:0.5;" width="69" x="5" y="64.1358"/><text fill="#000000" font-family="sans-serif" font-size="14" lengthAdjust="spacing" textLength="55" x="12" y="86.1018">Browser</text><rect fill="#E2E2F0" height="33.0679" rx="2.5" ry="2.5" style="stroke:#181818;stroke-width:0.5;" width="69" x="5" y="604.6181"/><text fill="#000000" font-family="sans-serif" font-size="14" lengthAdjust="spacing" textLength="55" x="12" y="626.584">Browser</text><rect fill="#E2E2F0" height="52.1358" rx="2.5" ry="2.5" style="stroke:#181818;stroke-width:0.5;" width="79" x="194" y="45.0679"/><text fill="#000000" font-family="sans-serif" font-size="14" lengthAdjust="spacing" textLength="65" x="201" y="67.0339">Javascript</text><text fill="#000000" font-family="sans-serif" font-size="14" lengthAdjust="spacing" textLength="44" x="211.5" y="86.1018">library</text><rect fill="#E2E2F0" height="52.1358" rx="2.5" ry="2.5" style="stroke:#181818;stroke-width:0.5;" width="79" x="194" y="604.6181"/><text fill="#000000" font-family="sans-serif" font-size="14" lengthAdjust="spacing" textLength="65" x="201" y="626.584">Javascript</text><text fill="#000000" font-family="sans-serif" font-size="14" lengthAdjust="spacing" textLength="44" x="211.5" y="645.6519">library</text><rect fill="#E2E2F0" height="33.0679" rx="2.5" ry="2.5" style="stroke:#181818;stroke-width:0.5;" width="87" x="385" y="64.1358"/><text fill="#000000" font-family="sans-serif" font-size="14" lengthAdjust="spacing" textLength="73" x="392" y="86.1018">WebSocket</text><rect fill="#E2E2F0" height="33.0679" rx="2.5" ry="2.5" style="stroke:#181818;stroke-width:0.5;" width="87" x="385" y="604.6181"/><text fill="#000000" font-family="sans-serif" font-size="14" lengthAdjust="spacing" textLength="73" x="392" y="626.584">WebSocket</text><rect fill="#E2E2F0" height="52.1358" rx="2.5" ry="2.5" style="stroke:#181818;stroke-width:0.5;" width="71" x="494" y="45.0679"/><text fill="#000000" font-family="sans-serif" font-size="14" lengthAdjust="spacing" textLength="46" x="506.5" y="67.0339">Python</text><text fill="#000000" font-family="sans-serif" font-size="14" lengthAdjust="spacing" textLength="57" x="501" y="86.1018">Backend</text><rect fill="#E2E2F0" height="52.1358" rx="2.5" ry="2.5" style="stroke:#181818;stroke-width:0.5;" width="71" x="494" y="604.6181"/><text fill="#000000" font-family="sans-serif" font-size="14" lengthAdjust="spacing" textLength="46" x="506.5" y="626.584">Python</text><text fill="#000000" font-family="sans-serif" font-size="14" lengthAdjust="spacing" textLength="57" x="501" y="645.6519">Backend</text><polygon fill="#181818" points="221.5,163.3218,231.5,167.3218,221.5,171.3218,225.5,167.3218" style="stroke:#181818;stroke-width:1.0;"/><line style="stroke:#181818;stroke-width:1.0;" x1="39.5" x2="227.5" y1="167.3218" y2="167.3218"/><text fill="#000000" font-family="sans-serif" font-size="13" lengthAdjust="spacing" textLength="91" x="46.5" y="126.1008">Browser makes</text><text fill="#000000" font-family="sans-serif" font-size="13" lengthAdjust="spacing" textLength="67" x="46.5" y="143.8068">funcion call</text><text fill="#000000" font-family="sans-serif" font-size="13" lengthAdjust="spacing" textLength="109" x="46.5" y="161.5128">(creating promise)</text><polygon fill="#181818" points="416.5,195.0278,426.5,199.0278,416.5,203.0278,420.5,199.0278" style="stroke:#181818;stroke-width:1.0;"/><line style="stroke:#181818;stroke-width:1.0;" x1="233.5" x2="422.5" y1="199.0278" y2="199.0278"/><text fill="#000000" font-family="sans-serif" font-size="13" lengthAdjust="spacing" textLength="77" x="240.5" y="193.2188">Sending json</text><path d="M433,212.0278 L433,310.0278 L577,310.0278 L577,222.0278 L567,212.0278 L433,212.0278 " fill="#FEFFDD" style="stroke:#181818;stroke-width:0.5;"/><path d="M567,212.0278 L567,222.0278 L577,222.0278 L567,212.0278 " fill="#FEFFDD" style="stroke:#181818;stroke-width:0.5;"/><text fill="#000000" font-family="sans-serif" font-size="13" lengthAdjust="spacing" textLength="5" x="439" y="230.9248">{</text><text fill="#000000" font-family="sans-serif" font-size="13" lengthAdjust="spacing" textLength="37" x="451" y="248.6308">"id": 1,</text><text fill="#000000" font-family="sans-serif" font-size="13" lengthAdjust="spacing" textLength="111" x="451" y="266.3369">"method": "uuid4",</text><text fill="#000000" font-family="sans-serif" font-size="13" lengthAdjust="spacing" textLength="71" x="451" y="284.0429">"params": {}</text><text fill="#000000" font-family="sans-serif" font-size="13" lengthAdjust="spacing" textLength="5" x="439" y="301.7489">}</text><polygon fill="#181818" points="517.5,335.2639,527.5,339.2639,517.5,343.2639,521.5,339.2639" style="stroke:#181818;stroke-width:1.0;"/><line style="stroke:#181818;stroke-width:1.0;" x1="428.5" x2="523.5" y1="339.2639" y2="339.2639"/><text fill="#000000" font-family="sans-serif" font-size="13" lengthAdjust="spacing" textLength="73" x="435.5" y="333.4549">Parsing json</text><line style="stroke:#181818;stroke-width:1.0;stroke-dasharray:2.0,2.0;" x1="529.5" x2="571.5" y1="370.9699" y2="370.9699"/><line style="stroke:#181818;stroke-width:1.0;stroke-dasharray:2.0,2.0;" x1="571.5" x2="571.5" y1="370.9699" y2="383.9699"/><line style="stroke:#181818;stroke-width:1.0;stroke-dasharray:2.0,2.0;" x1="530.5" x2="571.5" y1="383.9699" y2="383.9699"/><line style="stroke:#181818;stroke-width:1.0;" x1="530.5" x2="540.5" y1="383.9699" y2="379.9699"/><line style="stroke:#181818;stroke-width:1.0;" x1="530.5" x2="540.5" y1="383.9699" y2="387.9699"/><text fill="#000000" font-family="sans-serif" font-size="13" lengthAdjust="spacing" textLength="121" x="536.5" y="365.1609">Call python function</text><polygon fill="#181818" points="439.5,411.6759,429.5,415.6759,439.5,419.6759,435.5,415.6759" style="stroke:#181818;stroke-width:1.0;"/><line style="stroke:#181818;stroke-width:1.0;" x1="433.5" x2="528.5" y1="415.6759" y2="415.6759"/><text fill="#000000" font-family="sans-serif" font-size="13" lengthAdjust="spacing" textLength="77" x="445.5" y="409.8669">Sending json</text><path d="M187,428.6759 L187,508.6759 L524,508.6759 L524,438.6759 L514,428.6759 L187,428.6759 " fill="#FEFFDD" style="stroke:#181818;stroke-width:0.5;"/><path d="M514,428.6759 L514,438.6759 L524,438.6759 L514,428.6759 " fill="#FEFFDD" style="stroke:#181818;stroke-width:0.5;"/><text fill="#000000" font-family="sans-serif" font-size="13" lengthAdjust="spacing" textLength="5" x="193" y="447.573">{</text><text fill="#000000" font-family="sans-serif" font-size="13" lengthAdjust="spacing" textLength="37" x="205" y="465.279">"id": 1,</text><text fill="#000000" font-family="sans-serif" font-size="13" lengthAdjust="spacing" textLength="304" x="205" y="482.985">"result": "8927d899-497a-4851-98d4-0a3a0e07fdd5",</text><text fill="#000000" font-family="sans-serif" font-size="13" lengthAdjust="spacing" textLength="5" x="193" y="500.691">}</text><polygon fill="#181818" points="244.5,534.206,234.5,538.206,244.5,542.206,240.5,538.206" style="stroke:#181818;stroke-width:1.0;"/><line style="stroke:#181818;stroke-width:1.0;" x1="238.5" x2="427.5" y1="538.206" y2="538.206"/><text fill="#000000" font-family="sans-serif" font-size="13" lengthAdjust="spacing" textLength="171" x="250.5" y="532.397">Sending through Websocket</text><polygon fill="#181818" points="50.5,583.6181,40.5,587.6181,50.5,591.6181,46.5,587.6181" style="stroke:#181818;stroke-width:1.0;"/><line style="stroke:#181818;stroke-width:1.0;" x1="44.5" x2="232.5" y1="587.6181" y2="587.6181"/><text fill="#000000" font-family="sans-serif" font-size="13" lengthAdjust="spacing" textLength="170" x="56.5" y="564.103">Call JS function on client-side</text><text fill="#000000" font-family="sans-serif" font-size="13" lengthAdjust="spacing" textLength="115" x="56.5" y="581.8091">(resolving promise)</text></g></svg>