<?xml version="1.0" encoding="UTF-8"?>
<svg id="Layer_2" data-name="Layer 2" xmlns="http://www.w3.org/2000/svg" xmlns:xlink="http://www.w3.org/1999/xlink" viewBox="0 0 187.09 187.09">
  <defs>
    <style>
      .cls-1 {
        fill: url(#linear-gradient);
      }

      .cls-2 {
        fill: #afc6d2;
      }
    </style>
    <linearGradient id="linear-gradient" x1=".12" y1="-21.32" x2="191.7" y2="137.24" gradientUnits="userSpaceOnUse">
      <stop offset=".2" stop-color="#098dcb"/>
      <stop offset=".23" stop-color="#0f8cca"/>
      <stop offset=".27" stop-color="#208bc8"/>
      <stop offset=".32" stop-color="#3c8ac5"/>
      <stop offset=".37" stop-color="#6387c1"/>
      <stop offset=".42" stop-color="#9585bc"/>
      <stop offset=".47" stop-color="#d281b6"/>
      <stop offset=".5" stop-color="#f280b3"/>
      <stop offset=".53" stop-color="#f176ad"/>
      <stop offset=".63" stop-color="#f061a1"/>
      <stop offset=".72" stop-color="#ef5499"/>
      <stop offset=".8" stop-color="#ef5097"/>
    </linearGradient>
  </defs>
  <g id="Layer_2-2" data-name="Layer 2">
    <path class="cls-1" d="M184.68,68.72l-56.24-34c-.2-.12-.4-.22-.6-.31-.03-.01-.06-.02-.09-.03-.24-.1-.49-.17-.74-.23-.07-.02-.14-.03-.22-.05-.29-.05-.58-.09-.88-.09,0,0-.01,0-.02,0-.02,0-.05,0-.07,0-.27,0-.54,.03-.8,.08-.07,.01-.14,.02-.21,.04-.27,.06-.54,.14-.81,.25-.05,.02-.1,.05-.15,.07-.13,.06-.27,.12-.4,.19-.08,.04-.14,.1-.21,.14-.07,.04-.13,.08-.19,.13-.23,.16-.45,.34-.65,.54,0,0-.02,.02-.02,.03-.19,.19-.36,.41-.51,.63-.04,.06-.09,.13-.13,.19-.14,.22-.27,.45-.37,.7,0,.02-.02,.04-.03,.06-.11,.26-.19,.54-.25,.81-.02,.08-.03,.15-.05,.23-.05,.29-.09,.59-.09,.89v12H61.2c-2.74,0-4.96,2.24-4.96,5v8.17L14.6,39,56.24,13.83v8.17c0,2.65,2.05,4.83,4.67,4.99,32.66,1.94,61.93-3.98,87.01-17.59,2.41-1.31,3.32-4.34,2.02-6.77s-4.31-3.34-6.72-2.03c-22.24,12.07-48.15,17.65-77.05,16.63V5c0-1.8-.96-3.46-2.52-4.35-1.56-.89-3.46-.86-5,.06L2.41,34.71c-1.49,.9-2.41,2.53-2.41,4.29s.91,3.38,2.41,4.29l56.24,34c.2,.12,.4,.22,.61,.31,.03,.01,.06,.02,.09,.03,.24,.1,.49,.17,.74,.23,.08,.02,.16,.03,.24,.05,.29,.05,.58,.09,.88,.09s.59-.04,.88-.09c.07-.01,.14-.03,.21-.04,.27-.06,.54-.14,.8-.25,.05-.02,.09-.05,.14-.07,.14-.06,.27-.12,.41-.2,.07-.04,.14-.09,.21-.14,.07-.04,.14-.09,.2-.13,.23-.16,.45-.34,.65-.54,0,0,.02-.02,.03-.03,.19-.19,.36-.41,.51-.63,.04-.06,.09-.13,.13-.19,.14-.22,.27-.45,.38-.7,0-.02,.02-.04,.03-.06,.11-.26,.19-.54,.25-.82,.02-.08,.03-.15,.05-.23,.05-.29,.09-.59,.09-.89v-12h59.72c2.74,0,4.96-2.24,4.96-5v-8.17l41.64,25.17-41.64,25.17v-8.17c0-2.65-2.05-4.83-4.67-4.99-32.67-1.94-61.93,3.98-87.01,17.59-2.41,1.31-3.32,4.34-2.02,6.77,.9,1.68,2.61,2.63,4.37,2.63,.79,0,1.6-.19,2.35-.6,22.24-12.07,48.16-17.65,77.05-16.63v12.23c0,1.8,.96,3.46,2.52,4.35,1.56,.89,3.46,.86,5-.06l56.24-34c1.49-.9,2.41-2.53,2.41-4.29s-.91-3.38-2.41-4.29Z"/>
    <g>
      <path class="cls-2" d="M47.13,184c-.28,1.4-1.5,2.35-3.06,2.35h-8.13c-1.5,0-2.78-.95-3-2.41l-4.17-25.29c-.28-1.63-.5-3.25-.67-4.88h-1.06c-.22,1.63-.39,3.31-.67,4.93l-4.12,25.23c-.22,1.46-1.5,2.41-3.06,2.41H11.07c-1.5,0-2.78-.95-3.06-2.35l-5.47-32.77c-.31-1.86,1.12-3.56,2.99-3.56h2.46c1.51,0,2.79,1.12,3,2.63l3.36,24.22c.22,1.68,.39,3.53,.5,5.61h1.11c.22-1.85,.56-3.87,.83-5.61l4.12-24.22c.22-1.57,1.39-2.63,3-2.63h7.35c1.56,0,2.73,1.06,2.95,2.63l4.12,24.28c.28,1.79,.61,3.81,.78,5.55h1.17c.11-1.79,.28-3.81,.5-5.49l3.42-24.34c.21-1.51,1.49-2.63,3-2.63h2.4c1.88,0,3.3,1.7,2.99,3.56l-5.47,32.77Z"/>
      <path class="cls-2" d="M82.85,151.1l-.03,.35c-.15,1.59-1.49,2.8-3.08,2.76-2.85-.06-6.21-.09-9.21-.09-4.12,0-5.57,.22-5.57,3.53,0,2.69,1.11,3.42,4.01,4.37l7.29,2.52c6.12,2.19,8.13,5.72,8.13,11.38,0,8.8-3.78,11.16-14.25,11.16-2.06,0-5.82-.12-10.48-.93-1.54-.27-2.61-1.69-2.49-3.26l.05-.56c.13-1.62,1.5-2.85,3.11-2.81,5.15,.13,7.72,.21,9.82,.21,4.45,0,5.68-.62,5.68-3.76,0-2.75-1.06-3.42-3.62-4.26l-7.73-2.75c-5.84-2.13-7.96-5.61-7.96-11.33,0-8.86,4.06-10.71,13.97-10.71,2.99,0,6.46,.18,9.9,.86,1.55,.31,2.63,1.72,2.48,3.3Z"/>
      <path class="cls-2" d="M113.01,186.36c-1.4,0-2.61-.96-2.95-2.33l-2.33-9.51c-.72-2.47-1.84-3.25-4.12-3.25h-5.95v12.03c0,1.69-1.36,3.06-3.03,3.06h-2.28c-1.68,0-3.03-1.37-3.03-3.06v-32.82c0-1.6,1.23-2.94,2.82-3.05,3.31-.23,6.4-.27,11.81-.27,10.02,0,14.19,2.58,14.19,11.44,0,5.44-1.89,8.92-7.35,9.59v.28c1.95,.45,4.56,1.85,5.45,5.83l2.26,8.18c.54,1.95-.91,3.88-2.92,3.88h-2.59Zm-9.22-21.7c4.45,0,5.79-1.23,5.79-5.49s-1.34-5.44-5.79-5.44l-6.12,.06v10.88h6.12Z"/>
      <path class="cls-2" d="M152.82,159.78c0,9.98-3.39,12.67-12.91,12.67-2.5,0-5.01-.17-7.23-.45v11.3c0,1.69-1.36,3.06-3.03,3.06h-2.39c-1.68,0-3.03-1.37-3.03-3.06v-32.82c0-1.6,1.23-2.94,2.82-3.05,3.29-.23,6.34-.27,11.76-.27,10.63,0,14.02,2.75,14.02,12.62Zm-14.19,6.11c4.34-.06,5.68-1.29,5.68-6.11s-1.34-6.06-5.68-6.06h-5.95v12.17h5.95Z"/>
      <path class="cls-2" d="M184.13,151.01l-.09,.81c-.18,1.6-1.56,2.78-3.15,2.71-2.3-.1-4.49-.13-7.97-.13-5.57,0-7.23,2.86-7.23,12.62s1.67,12.62,7.23,12.62c3.64,0,6.24-.03,8.66-.21,1.63-.12,3.07,1.06,3.26,2.7l.08,.72c.18,1.55-.84,3-2.35,3.34-2.67,.6-5.52,.85-9.65,.85-11.85,0-16.14-5.27-16.14-20.02s4.28-20.02,16.14-20.02c3.93,0,6.39,.21,8.78,.67,1.55,.3,2.61,1.77,2.43,3.35Z"/>
    </g>
  </g>
</svg>
