<?xml version="1.0" encoding="UTF-8" standalone="no"?><svg xmlns="http://www.w3.org/2000/svg" xmlns:xlink="http://www.w3.org/1999/xlink" contentStyleType="text/css" height="681px" preserveAspectRatio="none" style="width:335px;height:681px;background:#FFFFFF;" version="1.1" viewBox="0 0 335 681" width="335px" zoomAndPan="magnify"><defs/><g><rect fill="none" height="26.4883" id="_title" style="stroke:none;stroke-width:1.0;" width="249" x="42.5" y="10"/><text fill="#000000" font-family="sans-serif" font-size="14" font-weight="bold" lengthAdjust="spacing" textLength="239" x="47.5" y="28.5352">Client and Server communication</text><rect fill="none" height="466.6816" style="stroke:#000000;stroke-width:1.5;" width="251.5" x="10" y="162.5977"/><line style="stroke:#181818;stroke-width:0.5;stroke-dasharray:5.0,5.0;" x1="47" x2="47" y1="73.9766" y2="282.7949"/><line style="stroke:#A80036;stroke-width:1.0;stroke-dasharray:1.0,4.0;" x1="47" x2="47" y1="282.7949" y2="310.7949"/><line style="stroke:#181818;stroke-width:0.5;stroke-dasharray:5.0,5.0;" x1="47" x2="47" y1="310.7949" y2="340.1055"/><line style="stroke:#A80036;stroke-width:1.0;stroke-dasharray:1.0,4.0;" x1="47" x2="47" y1="340.1055" y2="368.1055"/><line style="stroke:#181818;stroke-width:0.5;stroke-dasharray:5.0,5.0;" x1="47" x2="47" y1="368.1055" y2="426.7266"/><line style="stroke:#A80036;stroke-width:1.0;stroke-dasharray:1.0,4.0;" x1="47" x2="47" y1="426.7266" y2="454.7266"/><line style="stroke:#181818;stroke-width:0.5;stroke-dasharray:5.0,5.0;" x1="47" x2="47" y1="454.7266" y2="513.3477"/><line style="stroke:#A80036;stroke-width:1.0;stroke-dasharray:1.0,4.0;" x1="47" x2="47" y1="513.3477" y2="541.3477"/><line style="stroke:#181818;stroke-width:0.5;stroke-dasharray:5.0,5.0;" x1="47" x2="47" y1="541.3477" y2="646.2793"/><line style="stroke:#181818;stroke-width:0.5;stroke-dasharray:5.0,5.0;" x1="222.5" x2="222.5" y1="73.9766" y2="282.7949"/><line style="stroke:#A80036;stroke-width:1.0;stroke-dasharray:1.0,4.0;" x1="222.5" x2="222.5" y1="282.7949" y2="310.7949"/><line style="stroke:#181818;stroke-width:0.5;stroke-dasharray:5.0,5.0;" x1="222.5" x2="222.5" y1="310.7949" y2="340.1055"/><line style="stroke:#A80036;stroke-width:1.0;stroke-dasharray:1.0,4.0;" x1="222.5" x2="222.5" y1="340.1055" y2="368.1055"/><line style="stroke:#181818;stroke-width:0.5;stroke-dasharray:5.0,5.0;" x1="222.5" x2="222.5" y1="368.1055" y2="426.7266"/><line style="stroke:#A80036;stroke-width:1.0;stroke-dasharray:1.0,4.0;" x1="222.5" x2="222.5" y1="426.7266" y2="454.7266"/><line style="stroke:#181818;stroke-width:0.5;stroke-dasharray:5.0,5.0;" x1="222.5" x2="222.5" y1="454.7266" y2="513.3477"/><line style="stroke:#A80036;stroke-width:1.0;stroke-dasharray:1.0,4.0;" x1="222.5" x2="222.5" y1="513.3477" y2="541.3477"/><line style="stroke:#181818;stroke-width:0.5;stroke-dasharray:5.0,5.0;" x1="222.5" x2="222.5" y1="541.3477" y2="646.2793"/><rect fill="#E2E2F0" height="30.4883" rx="2.5" ry="2.5" style="stroke:#181818;stroke-width:0.5;" width="54" x="20" y="42.4883"/><text fill="#000000" font-family="sans-serif" font-size="14" lengthAdjust="spacing" textLength="40" x="27" y="63.0234">Client</text><rect fill="#E2E2F0" height="30.4883" rx="2.5" ry="2.5" style="stroke:#181818;stroke-width:0.5;" width="54" x="20" y="645.2793"/><text fill="#000000" font-family="sans-serif" font-size="14" lengthAdjust="spacing" textLength="40" x="27" y="665.8145">Client</text><rect fill="#E2E2F0" height="30.4883" rx="2.5" ry="2.5" style="stroke:#181818;stroke-width:0.5;" width="57" x="194.5" y="42.4883"/><text fill="#000000" font-family="sans-serif" font-size="14" lengthAdjust="spacing" textLength="43" x="201.5" y="63.0234">Server</text><rect fill="#E2E2F0" height="30.4883" rx="2.5" ry="2.5" style="stroke:#181818;stroke-width:0.5;" width="57" x="194.5" y="645.2793"/><text fill="#000000" font-family="sans-serif" font-size="14" lengthAdjust="spacing" textLength="43" x="201.5" y="665.8145">Server</text><polygon fill="#181818" points="211,101.2871,221,105.2871,211,109.2871,215,105.2871" style="stroke:#181818;stroke-width:1.0;"/><line style="stroke:#181818;stroke-width:1.0;" x1="47" x2="217" y1="105.2871" y2="105.2871"/><text fill="#000000" font-family="sans-serif" font-size="13" lengthAdjust="spacing" textLength="141" x="54" y="100.5449">Initializing connection</text><line style="stroke:#181818;stroke-width:1.0;" x1="223" x2="265" y1="134.5977" y2="134.5977"/><line style="stroke:#181818;stroke-width:1.0;" x1="265" x2="265" y1="134.5977" y2="147.5977"/><line style="stroke:#181818;stroke-width:1.0;" x1="224" x2="265" y1="147.5977" y2="147.5977"/><polygon fill="#181818" points="234,143.5977,224,147.5977,234,151.5977,230,147.5977" style="stroke:#181818;stroke-width:1.0;"/><text fill="#000000" font-family="sans-serif" font-size="13" lengthAdjust="spacing" textLength="98" x="230" y="129.8555">authorize client</text><path d="M10,162.5977 L72,162.5977 L72,169.9082 L62,179.9082 L10,179.9082 L10,162.5977 " fill="#EEEEEE" style="stroke:#000000;stroke-width:1.5;"/><rect fill="none" height="466.6816" style="stroke:#000000;stroke-width:1.5;" width="251.5" x="10" y="162.5977"/><text fill="#000000" font-family="sans-serif" font-size="13" font-weight="bold" lengthAdjust="spacing" textLength="17" x="25" y="176.166">alt</text><text fill="#000000" font-family="sans-serif" font-size="11" font-weight="bold" lengthAdjust="spacing" textLength="164" x="87" y="175.2324">[client was not authenticated]</text><polygon fill="#181818" points="58,197.2188,48,201.2188,58,205.2188,54,201.2188" style="stroke:#181818;stroke-width:1.0;"/><line style="stroke:#181818;stroke-width:1.0;" x1="52" x2="222" y1="201.2188" y2="201.2188"/><text fill="#000000" font-family="sans-serif" font-size="13" lengthAdjust="spacing" textLength="91" x="64" y="196.4766">403 Forbidden</text><line style="stroke:#181818;stroke-width:2.0;" x1="54" x2="64" y1="225.5293" y2="235.5293"/><line style="stroke:#181818;stroke-width:2.0;" x1="54" x2="64" y1="235.5293" y2="225.5293"/><line style="stroke:#181818;stroke-width:1.0;" x1="59" x2="222" y1="230.5293" y2="230.5293"/><text fill="#000000" font-family="sans-serif" font-size="13" lengthAdjust="spacing" textLength="115" x="64" y="225.7871">connection closed</text><line style="stroke:#000000;stroke-width:1.0;stroke-dasharray:2.0,2.0;" x1="10" x2="261.5" y1="239.5293" y2="239.5293"/><text fill="#000000" font-family="sans-serif" font-size="11" font-weight="bold" lengthAdjust="spacing" textLength="117" x="15" y="250.1641">[client authenticated]</text><polygon fill="#181818" points="58,270.7949,48,274.7949,58,278.7949,54,274.7949" style="stroke:#181818;stroke-width:1.0;"/><line style="stroke:#181818;stroke-width:1.0;" x1="52" x2="222" y1="274.7949" y2="274.7949"/><text fill="#000000" font-family="sans-serif" font-size="13" lengthAdjust="spacing" textLength="152" x="64" y="270.0527">101 Switching Protocols</text><polygon fill="#181818" points="211,328.1055,221,332.1055,211,336.1055,215,332.1055" style="stroke:#181818;stroke-width:1.0;"/><line style="stroke:#181818;stroke-width:1.0;" x1="47" x2="217" y1="332.1055" y2="332.1055"/><text fill="#000000" font-family="sans-serif" font-size="13" lengthAdjust="spacing" textLength="87" x="54" y="327.3633">RPC request 1</text><polygon fill="#181818" points="211,385.416,221,389.416,211,393.416,215,389.416" style="stroke:#181818;stroke-width:1.0;"/><line style="stroke:#181818;stroke-width:1.0;" x1="47" x2="217" y1="389.416" y2="389.416"/><text fill="#000000" font-family="sans-serif" font-size="13" lengthAdjust="spacing" textLength="87" x="54" y="384.6738">RPC request 2</text><polygon fill="#181818" points="58,414.7266,48,418.7266,58,422.7266,54,418.7266" style="stroke:#181818;stroke-width:1.0;"/><line style="stroke:#181818;stroke-width:1.0;" x1="52" x2="222" y1="418.7266" y2="418.7266"/><text fill="#000000" font-family="sans-serif" font-size="13" lengthAdjust="spacing" textLength="97" x="64" y="413.9844">RPC response 2</text><polygon fill="#181818" points="211,472.0371,221,476.0371,211,480.0371,215,476.0371" style="stroke:#181818;stroke-width:1.0;"/><line style="stroke:#181818;stroke-width:1.0;" x1="47" x2="217" y1="476.0371" y2="476.0371"/><text fill="#000000" font-family="sans-serif" font-size="13" lengthAdjust="spacing" textLength="87" x="54" y="471.2949">RPC request 3</text><polygon fill="#181818" points="58,501.3477,48,505.3477,58,509.3477,54,505.3477" style="stroke:#181818;stroke-width:1.0;"/><line style="stroke:#181818;stroke-width:1.0;" x1="52" x2="222" y1="505.3477" y2="505.3477"/><text fill="#000000" font-family="sans-serif" font-size="13" lengthAdjust="spacing" textLength="97" x="64" y="500.6055">RPC response 3</text><polygon fill="#181818" points="58,558.6582,48,562.6582,58,566.6582,54,562.6582" style="stroke:#181818;stroke-width:1.0;"/><line style="stroke:#181818;stroke-width:1.0;" x1="52" x2="222" y1="562.6582" y2="562.6582"/><text fill="#000000" font-family="sans-serif" font-size="13" lengthAdjust="spacing" textLength="97" x="64" y="557.916">RPC response 1</text><polygon fill="#181818" points="211,587.9688,221,591.9688,211,595.9688,215,591.9688" style="stroke:#181818;stroke-width:1.0;"/><line style="stroke:#181818;stroke-width:1.0;" x1="47" x2="217" y1="591.9688" y2="591.9688"/><text fill="#000000" font-family="sans-serif" font-size="13" lengthAdjust="spacing" textLength="109" x="54" y="587.2266">Close connection</text><line style="stroke:#181818;stroke-width:2.0;" x1="54" x2="64" y1="616.2793" y2="626.2793"/><line style="stroke:#181818;stroke-width:2.0;" x1="54" x2="64" y1="626.2793" y2="616.2793"/><line style="stroke:#181818;stroke-width:1.0;" x1="59" x2="222" y1="621.2793" y2="621.2793"/><text fill="#000000" font-family="sans-serif" font-size="13" lengthAdjust="spacing" textLength="115" x="64" y="616.5371">connection closed</text></g></svg>