<?xml version="1.0" encoding="UTF-8" standalone="no"?><svg xmlns="http://www.w3.org/2000/svg" xmlns:xlink="http://www.w3.org/1999/xlink" contentStyleType="text/css" height="725px" preserveAspectRatio="none" style="width:318px;height:725px;background:#FFFFFF;" version="1.1" viewBox="0 0 318 725" width="318px" zoomAndPan="magnify"><defs/><g><rect fill="none" height="29.0679" id="_title" style="stroke:none;stroke-width:1.0;" width="241" x="38.25" y="10"/><text fill="#000000" font-family="sans-serif" font-size="14" font-weight="bold" lengthAdjust="spacing" textLength="231" x="43.25" y="29.9659">Client and Server communication</text><rect fill="none" height="497.4541" style="stroke:#000000;stroke-width:1.5;" width="251" x="10" y="172.5479"/><line style="stroke:#181818;stroke-width:0.5;stroke-dasharray:5.0,5.0;" x1="46" x2="46" y1="79.1358" y2="304.3538"/><line style="stroke:#A80036;stroke-width:1.0;stroke-dasharray:1.0,4.0;" x1="46" x2="46" y1="304.3538" y2="332.3538"/><line style="stroke:#181818;stroke-width:0.5;stroke-dasharray:5.0,5.0;" x1="46" x2="46" y1="332.3538" y2="364.0598"/><line style="stroke:#A80036;stroke-width:1.0;stroke-dasharray:1.0,4.0;" x1="46" x2="46" y1="364.0598" y2="392.0598"/><line style="stroke:#181818;stroke-width:0.5;stroke-dasharray:5.0,5.0;" x1="46" x2="46" y1="392.0598" y2="455.4719"/><line style="stroke:#A80036;stroke-width:1.0;stroke-dasharray:1.0,4.0;" x1="46" x2="46" y1="455.4719" y2="483.4719"/><line style="stroke:#181818;stroke-width:0.5;stroke-dasharray:5.0,5.0;" x1="46" x2="46" y1="483.4719" y2="546.8839"/><line style="stroke:#A80036;stroke-width:1.0;stroke-dasharray:1.0,4.0;" x1="46" x2="46" y1="546.8839" y2="574.8839"/><line style="stroke:#181818;stroke-width:0.5;stroke-dasharray:5.0,5.0;" x1="46" x2="46" y1="574.8839" y2="687.002"/><line style="stroke:#181818;stroke-width:0.5;stroke-dasharray:5.0,5.0;" x1="212" x2="212" y1="79.1358" y2="304.3538"/><line style="stroke:#A80036;stroke-width:1.0;stroke-dasharray:1.0,4.0;" x1="212" x2="212" y1="304.3538" y2="332.3538"/><line style="stroke:#181818;stroke-width:0.5;stroke-dasharray:5.0,5.0;" x1="212" x2="212" y1="332.3538" y2="364.0598"/><line style="stroke:#A80036;stroke-width:1.0;stroke-dasharray:1.0,4.0;" x1="212" x2="212" y1="364.0598" y2="392.0598"/><line style="stroke:#181818;stroke-width:0.5;stroke-dasharray:5.0,5.0;" x1="212" x2="212" y1="392.0598" y2="455.4719"/><line style="stroke:#A80036;stroke-width:1.0;stroke-dasharray:1.0,4.0;" x1="212" x2="212" y1="455.4719" y2="483.4719"/><line style="stroke:#181818;stroke-width:0.5;stroke-dasharray:5.0,5.0;" x1="212" x2="212" y1="483.4719" y2="546.8839"/><line style="stroke:#A80036;stroke-width:1.0;stroke-dasharray:1.0,4.0;" x1="212" x2="212" y1="546.8839" y2="574.8839"/><line style="stroke:#181818;stroke-width:0.5;stroke-dasharray:5.0,5.0;" x1="212" x2="212" y1="574.8839" y2="687.002"/><rect fill="#E2E2F0" height="33.0679" rx="2.5" ry="2.5" style="stroke:#181818;stroke-width:0.5;" width="53" x="20" y="45.0679"/><text fill="#000000" font-family="sans-serif" font-size="14" lengthAdjust="spacing" textLength="39" x="27" y="67.0339">Client</text><rect fill="#E2E2F0" height="33.0679" rx="2.5" ry="2.5" style="stroke:#181818;stroke-width:0.5;" width="53" x="20" y="686.002"/><text fill="#000000" font-family="sans-serif" font-size="14" lengthAdjust="spacing" textLength="39" x="27" y="707.9679">Client</text><rect fill="#E2E2F0" height="33.0679" rx="2.5" ry="2.5" style="stroke:#181818;stroke-width:0.5;" width="57" x="184" y="45.0679"/><text fill="#000000" font-family="sans-serif" font-size="14" lengthAdjust="spacing" textLength="43" x="191" y="67.0339">Server</text><rect fill="#E2E2F0" height="33.0679" rx="2.5" ry="2.5" style="stroke:#181818;stroke-width:0.5;" width="57" x="184" y="686.002"/><text fill="#000000" font-family="sans-serif" font-size="14" lengthAdjust="spacing" textLength="43" x="191" y="707.9679">Server</text><polygon fill="#181818" points="200.5,108.8419,210.5,112.8419,200.5,116.8419,204.5,112.8419" style="stroke:#181818;stroke-width:1.0;"/><line style="stroke:#181818;stroke-width:1.0;" x1="46.5" x2="206.5" y1="112.8419" y2="112.8419"/><text fill="#000000" font-family="sans-serif" font-size="13" lengthAdjust="spacing" textLength="131" x="53.5" y="107.0328">Initializing connection</text><line style="stroke:#181818;stroke-width:1.0;" x1="212.5" x2="254.5" y1="144.5479" y2="144.5479"/><line style="stroke:#181818;stroke-width:1.0;" x1="254.5" x2="254.5" y1="144.5479" y2="157.5479"/><line style="stroke:#181818;stroke-width:1.0;" x1="213.5" x2="254.5" y1="157.5479" y2="157.5479"/><polygon fill="#181818" points="223.5,153.5479,213.5,157.5479,223.5,161.5479,219.5,157.5479" style="stroke:#181818;stroke-width:1.0;"/><text fill="#000000" font-family="sans-serif" font-size="13" lengthAdjust="spacing" textLength="92" x="219.5" y="138.7389">authorize client</text><path d="M10,172.5479 L73,172.5479 L73,182.2539 L63,192.2539 L10,192.2539 L10,172.5479 " fill="#EEEEEE" style="stroke:#000000;stroke-width:1.5;"/><rect fill="none" height="497.4541" style="stroke:#000000;stroke-width:1.5;" width="251" x="10" y="172.5479"/><text fill="#000000" font-family="sans-serif" font-size="13" font-weight="bold" lengthAdjust="spacing" textLength="18" x="25" y="187.4449">alt</text><text fill="#000000" font-family="sans-serif" font-size="11" font-weight="bold" lengthAdjust="spacing" textLength="168" x="88" y="186.3068">[client was not authenticated]</text><polygon fill="#181818" points="57.5,211.9599,47.5,215.9599,57.5,219.9599,53.5,215.9599" style="stroke:#181818;stroke-width:1.0;"/><line style="stroke:#181818;stroke-width:1.0;" x1="51.5" x2="211.5" y1="215.9599" y2="215.9599"/><text fill="#000000" font-family="sans-serif" font-size="13" lengthAdjust="spacing" textLength="86" x="63.5" y="210.1509">403 Forbidden</text><line style="stroke:#181818;stroke-width:2.0;" x1="53.5" x2="63.5" y1="242.6659" y2="252.6659"/><line style="stroke:#181818;stroke-width:2.0;" x1="53.5" x2="63.5" y1="252.6659" y2="242.6659"/><line style="stroke:#181818;stroke-width:1.0;" x1="58.5" x2="211.5" y1="247.6659" y2="247.6659"/><text fill="#000000" font-family="sans-serif" font-size="13" lengthAdjust="spacing" textLength="108" x="63.5" y="241.8569">connection closed</text><line style="stroke:#000000;stroke-width:1.0;stroke-dasharray:2.0,2.0;" x1="10" x2="261" y1="256.6659" y2="256.6659"/><text fill="#000000" font-family="sans-serif" font-size="11" font-weight="bold" lengthAdjust="spacing" textLength="122" x="15" y="268.4248">[client authenticated]</text><polygon fill="#181818" points="57.5,292.3538,47.5,296.3538,57.5,300.3538,53.5,296.3538" style="stroke:#181818;stroke-width:1.0;"/><line style="stroke:#181818;stroke-width:1.0;" x1="51.5" x2="211.5" y1="296.3538" y2="296.3538"/><text fill="#000000" font-family="sans-serif" font-size="13" lengthAdjust="spacing" textLength="142" x="63.5" y="290.5448">101 Switching Protocols</text><polygon fill="#181818" points="200.5,352.0598,210.5,356.0598,200.5,360.0598,204.5,356.0598" style="stroke:#181818;stroke-width:1.0;"/><line style="stroke:#181818;stroke-width:1.0;" x1="46.5" x2="206.5" y1="356.0598" y2="356.0598"/><text fill="#000000" font-family="sans-serif" font-size="13" lengthAdjust="spacing" textLength="83" x="53.5" y="350.2508">RPC request 1</text><polygon fill="#181818" points="200.5,411.7659,210.5,415.7659,200.5,419.7659,204.5,415.7659" style="stroke:#181818;stroke-width:1.0;"/><line style="stroke:#181818;stroke-width:1.0;" x1="46.5" x2="206.5" y1="415.7659" y2="415.7659"/><text fill="#000000" font-family="sans-serif" font-size="13" lengthAdjust="spacing" textLength="83" x="53.5" y="409.9569">RPC request 2</text><polygon fill="#181818" points="57.5,443.4719,47.5,447.4719,57.5,451.4719,53.5,447.4719" style="stroke:#181818;stroke-width:1.0;"/><line style="stroke:#181818;stroke-width:1.0;" x1="51.5" x2="211.5" y1="447.4719" y2="447.4719"/><text fill="#000000" font-family="sans-serif" font-size="13" lengthAdjust="spacing" textLength="92" x="63.5" y="441.6629">RPC response 2</text><polygon fill="#181818" points="200.5,503.1779,210.5,507.1779,200.5,511.1779,204.5,507.1779" style="stroke:#181818;stroke-width:1.0;"/><line style="stroke:#181818;stroke-width:1.0;" x1="46.5" x2="206.5" y1="507.1779" y2="507.1779"/><text fill="#000000" font-family="sans-serif" font-size="13" lengthAdjust="spacing" textLength="83" x="53.5" y="501.3689">RPC request 3</text><polygon fill="#181818" points="57.5,534.8839,47.5,538.8839,57.5,542.8839,53.5,538.8839" style="stroke:#181818;stroke-width:1.0;"/><line style="stroke:#181818;stroke-width:1.0;" x1="51.5" x2="211.5" y1="538.8839" y2="538.8839"/><text fill="#000000" font-family="sans-serif" font-size="13" lengthAdjust="spacing" textLength="92" x="63.5" y="533.0749">RPC response 3</text><polygon fill="#181818" points="57.5,594.5899,47.5,598.5899,57.5,602.5899,53.5,598.5899" style="stroke:#181818;stroke-width:1.0;"/><line style="stroke:#181818;stroke-width:1.0;" x1="51.5" x2="211.5" y1="598.5899" y2="598.5899"/><text fill="#000000" font-family="sans-serif" font-size="13" lengthAdjust="spacing" textLength="92" x="63.5" y="592.7809">RPC response 1</text><polygon fill="#181818" points="200.5,626.2959,210.5,630.2959,200.5,634.2959,204.5,630.2959" style="stroke:#181818;stroke-width:1.0;"/><line style="stroke:#181818;stroke-width:1.0;" x1="46.5" x2="206.5" y1="630.2959" y2="630.2959"/><text fill="#000000" font-family="sans-serif" font-size="13" lengthAdjust="spacing" textLength="102" x="53.5" y="624.4869">Close connection</text><line style="stroke:#181818;stroke-width:2.0;" x1="53.5" x2="63.5" y1="657.002" y2="667.002"/><line style="stroke:#181818;stroke-width:2.0;" x1="53.5" x2="63.5" y1="667.002" y2="657.002"/><line style="stroke:#181818;stroke-width:1.0;" x1="58.5" x2="211.5" y1="662.002" y2="662.002"/><text fill="#000000" font-family="sans-serif" font-size="13" lengthAdjust="spacing" textLength="108" x="63.5" y="656.1929">connection closed</text></g></svg>